HIERARCHY
ROOT Hips
{
	OFFSET 0.000000 0.000000 0.000000
	CHANNELS 6 Xposition Yposition Zposition Xrotation Yrotation Zrotation
	JOINT LeftUpLeg_virtual
	{
		OFFSET 0.000000 0.000000 0.000000
		CHANNELS 3 Xrotation Yrotation Zrotation
		JOINT LeftUpLeg
		{
			OFFSET 10.205400 -3.823500 0.155100
			CHANNELS 3 Xrotation Yrotation Zrotation
			JOINT LeftLeg
			{
				OFFSET 0.708757 -12.982077 0.567790
				CHANNELS 3 Xrotation Yrotation Zrotation
				JOINT LeftFoot
				{
					OFFSET -0.708756 -10.717838 -2.184338
					CHANNELS 3 Xrotation Yrotation Zrotation
					JOINT LeftToeBase
					{
						OFFSET 0.108149 -7.191104 7.560241
						CHANNELS 3 Xrotation Yrotation Zrotation
						JOINT LeftToe_End
						{
							OFFSET 0.070230 0.081724 4.490308
							CHANNELS 3 Xrotation Yrotation Zrotation
							End Site
							{
								OFFSET 0 0 0
							}
						}
					}
				}
			}
		}
	}
	JOINT RightUpLeg_virtual
	{
		OFFSET 0.000000 0.000000 0.000000
		CHANNELS 3 Xrotation Yrotation Zrotation
		JOINT RightUpLeg
		{
			OFFSET -10.205400 -3.823500 0.005500
			CHANNELS 3 Xrotation Yrotation Zrotation
			JOINT RightLeg
			{
				OFFSET -0.708756 -12.982134 0.610632
				CHANNELS 3 Xrotation Yrotation Zrotation
				JOINT RightFoot
				{
					OFFSET 0.708754 -10.717769 -1.945823
					CHANNELS 3 Xrotation Yrotation Zrotation
					JOINT RightToeBase
					{
						OFFSET -0.108140 -7.191069 7.372968
						CHANNELS 3 Xrotation Yrotation Zrotation
						JOINT RightToe_End
						{
							OFFSET -0.070227 0.081735 4.479403
							CHANNELS 3 Xrotation Yrotation Zrotation
							End Site
							{
								OFFSET 0 0 0
							}
						}
					}
				}
			}
		}
	}
	JOINT Spine_virtual
	{
		OFFSET 0.000000 0.000000 0.000000
		CHANNELS 3 Xrotation Yrotation Zrotation
		JOINT Spine
		{
			OFFSET 0.000000 6.876099 0.125700
			CHANNELS 3 Xrotation Yrotation Zrotation
			JOINT Spine1
			{
				OFFSET 0.000000 5.730043 0.104720
				CHANNELS 3 Xrotation Yrotation Zrotation
				JOINT Spine1_split
				{
					OFFSET 0.000000 5.730043 0.104720
					CHANNELS 3 Xrotation Yrotation Zrotation
					JOINT Spine2
					{
						OFFSET 0.000000 5.730043 0.104720
						CHANNELS 3 Xrotation Yrotation Zrotation
						JOINT Neck_virtual
						{
							OFFSET 0.000000 0.000000 0.000000
							CHANNELS 3 Xrotation Yrotation Zrotation
							JOINT Neck
							{
								OFFSET 0.000000 10.314075 0.188496
								CHANNELS 3 Xrotation Yrotation Zrotation
								JOINT Head
								{
									OFFSET 0.000000 7.643700 -2.377400
									CHANNELS 3 Xrotation Yrotation Zrotation
									JOINT HeadTop_End
									{
										OFFSET 0.000000 43.788605 -13.619600
										CHANNELS 3 Xrotation Yrotation Zrotation
										End Site
										{
											OFFSET 0 0 0
										}
									}
								}
							}
						}
						JOINT LeftShoulder_virtual
						{
							OFFSET 0.000000 0.000000 0.000000
							CHANNELS 3 Xrotation Yrotation Zrotation
							JOINT LeftShoulder
							{
								OFFSET 2.196100 4.412489 0.087492
								CHANNELS 3 Xrotation Yrotation Zrotation
								JOINT LeftShoulder_split
								{
									OFFSET 2.196100 4.412489 0.087492
									CHANNELS 3 Xrotation Yrotation Zrotation
									JOINT LeftArm
									{
										OFFSET 8.771219 -2.981674 -0.026999
										CHANNELS 3 Xrotation Yrotation Zrotation
										JOINT LeftForeArm
										{
											OFFSET 8.512804 0.000000 -0.000000
											CHANNELS 3 Xrotation Yrotation Zrotation
											JOINT LeftHand
											{
												OFFSET 18.484802 0.000000 -0.000000
												CHANNELS 3 Xrotation Yrotation Zrotation
												End Site
												{
													OFFSET 0 0 0
												}
											}
										}
									}
								}
							}
						}
						JOINT RightShoulder_virtual
						{
							OFFSET 0.000000 0.000000 0.000000
							CHANNELS 3 Xrotation Yrotation Zrotation
							JOINT RightShoulder
							{
								OFFSET -2.196100 4.412496 0.070690
								CHANNELS 3 Xrotation Yrotation Zrotation
								JOINT RightShoulder_split
								{
									OFFSET -2.196100 4.412496 0.070690
									CHANNELS 3 Xrotation Yrotation Zrotation
									JOINT RightArm
									{
										OFFSET -8.771282 -2.981682 -0.094208
										CHANNELS 3 Xrotation Yrotation Zrotation
										JOINT RightForeArm
										{
											OFFSET -8.494598 0.000000 0.000000
											CHANNELS 3 Xrotation Yrotation Zrotation
											JOINT RightHand
											{
												OFFSET -18.483803 0.000000 0.000001
												CHANNELS 3 Xrotation Yrotation Zrotation
												End Site
												{
													OFFSET 0 0 0
												}
											}
										}
									}
								}
							}
						}
					}
				}
			}
		}
	}
}
MOTION
Frames: 4
Frame Time: 0.03333333
0.878247 16.264975 -1.138552 0.000000 0.000000 0.000000 179.408306 -8.278947 173.727719 -79.752116 -32.922577 28.052538 116.657391 -12.149506 -2.362804 -26.111195 6.339471 -20.453474 -10.542254 0.289692 0.837510 0.000000 0.000000 0.000000 179.281428 -5.721202 173.978251 -37.654788 14.168462 -43.140271 104.560088 17.347214 0.825419 -42.265603 -15.536698 32.052493 -3.612961 -5.304163 -0.308109 0.000000 0.000000 0.000000 179.945036 -6.539736 171.956651 7.810526 4.898682 -3.341531 7.891116 7.139731 -3.948853 0.605115 -3.217506 0.671971 0.000000 0.000000 0.000000 8.101766 6.602402 -3.838618 -2.676522 23.864298 6.762777 5.753192 33.902143 -24.201430 0.000000 0.000000 0.000000 8.633088 6.947297 -4.087575 0.979321 -13.392923 -10.231115 -3.434774 -1.585269 -3.837988 3.605692 2.473941 -31.646677 36.549664 -41.036238 1.119929 0.000000 0.000000 0.000000 8.162236 6.887723 -4.431198 5.094466 -18.589975 14.051481 1.738302 2.887759 -1.648452 13.220093 -13.162921 60.807658 34.371387 50.012831 -8.524956 0.000000 0.000000 0.000000 
0.876410 16.265862 -1.136229 0.000000 0.000000 0.000000 179.401435 -8.279416 173.730902 -79.754350 -32.920689 28.059645 116.653170 -12.141211 -2.358073 -26.092721 6.334061 -20.426536 -10.535113 0.290860 0.833254 0.000000 0.000000 0.000000 179.275131 -5.731847 173.985477 -37.655485 14.164624 -43.135517 104.544822 17.345131 0.825448 -42.277795 -15.540371 32.051677 -3.613737 -5.297817 -0.311777 0.000000 0.000000 0.000000 179.930938 -6.541093 171.965244 7.803746 4.896136 -3.333393 7.881504 7.137896 -3.939736 0.583656 -3.215409 0.673610 0.000000 0.000000 0.000000 8.100545 6.602730 -3.831106 -2.630525 23.878133 6.737833 5.741840 33.910096 -24.190945 0.000000 0.000000 0.000000 8.631516 6.945159 -4.078417 0.981012 -13.410182 -10.239240 -3.443828 -1.598895 -3.849974 3.572846 2.506570 -31.642853 36.542916 -41.002056 1.107732 0.000000 0.000000 0.000000 8.150981 6.884988 -4.422538 5.098557 -18.586649 14.039080 1.747783 2.867689 -1.649716 13.204724 -13.159155 60.806401 34.358423 49.988064 -8.523286 0.000000 0.000000 0.000000 
0.872500 16.267332 -1.135668 0.000000 0.000000 0.000000 179.379919 -8.294542 173.727870 -79.776411 -32.903562 28.052835 116.641367 -12.125879 -2.356609 -26.064704 6.328272 -20.392896 -10.527284 0.292623 0.829513 0.000000 0.000000 0.000000 179.255228 -5.755008 173.988305 -37.649440 14.156023 -43.139864 104.539617 17.345848 0.827089 -42.291343 -15.545497 32.067858 -3.604741 -5.292854 -0.319543 0.000000 0.000000 0.000000 179.906090 -6.556091 171.967771 7.794772 4.887803 -3.323495 7.869242 7.139586 -3.923492 0.584385 -3.205548 0.677664 0.000000 0.000000 0.000000 8.089231 6.607854 -3.816674 -2.541140 23.883595 6.695483 5.770605 33.919723 -24.232671 0.000000 0.000000 0.000000 8.624416 6.946362 -4.062681 0.978274 -13.453004 -10.260781 -3.451222 -1.597951 -3.862166 3.538820 2.561500 -31.645264 36.529242 -40.975247 1.094961 0.000000 0.000000 0.000000 8.133282 6.888084 -4.405199 5.107758 -18.587772 14.002511 1.763636 2.858604 -1.652856 13.169144 -13.123424 60.833920 34.332458 49.896936 -8.514961 0.000000 0.000000 0.000000 
0.867979 16.269545 -1.136673 0.000000 0.000000 0.000000 179.347531 -8.324461 173.718034 -79.823034 -32.870183 28.030412 116.623814 -12.104144 -2.358095 -26.035764 6.323289 -20.355746 -10.503292 0.295302 0.824302 0.000000 0.000000 0.000000 179.224464 -5.787661 173.984835 -37.626593 14.143577 -43.153238 104.543463 17.348501 0.828685 -42.309340 -15.556161 32.102897 -3.589897 -5.289349 -0.329104 0.000000 0.000000 0.000000 179.873305 -6.585516 171.960435 7.787296 4.876446 -3.313542 7.858443 7.147028 -3.902215 0.601071 -3.195671 0.677624 0.000000 0.000000 0.000000 8.072312 6.619028 -3.797628 -2.419663 23.878270 6.648562 5.843938 33.936714 -24.330566 0.000000 0.000000 0.000000 8.615751 6.951916 -4.042360 0.971433 -13.517033 -10.293689 -3.456074 -1.585482 -3.866011 3.499897 2.628589 -31.651312 36.510161 -40.962789 1.084325 0.000000 0.000000 0.000000 8.114961 6.898433 -4.381755 5.120971 -18.595072 13.944475 1.780568 2.859244 -1.666346 13.113643 -13.055534 60.890214 34.291634 49.741857 -8.499111 0.000000 0.000000 0.000000 
